<?xml version="1.0" encoding="utf-8"?>
<!-- Generator: Adobe Illustrator 26.3.1, SVG Export Plug-In . SVG Version: 6.00 Build 0)  -->
<svg version="1.1" id="Layer_1" xmlns="http://www.w3.org/2000/svg" xmlns:xlink="http://www.w3.org/1999/xlink" x="0px" y="0px"
	 viewBox="0 0 24 24" style="enable-background:new 0 0 24 24;" xml:space="preserve">
<style type="text/css">
	.st0{fill:#005DAA;}
</style>
<path class="st0" d="M8.3,3.1c-1,0-1.6,0.2-2.2,0.4c-0.6,0.2-1.1,0.6-1.6,1C4,5,3.7,5.5,3.5,6.1C3.2,6.7,3.1,7.3,3,8.3S3,9.6,3,12
	s0,2.8,0.1,3.7c0,1,0.2,1.6,0.4,2.2c0.2,0.6,0.6,1.1,1,1.6c0.5,0.5,1,0.8,1.6,1c0.6,0.2,1.2,0.4,2.2,0.4S9.6,21,12,21
	c2.4,0,2.8,0,3.7-0.1c1,0,1.6-0.2,2.2-0.4c0.6-0.2,1.1-0.6,1.6-1c0.5-0.5,0.8-1,1-1.6c0.2-0.6,0.4-1.2,0.4-2.2c0-1,0.1-1.3,0-3.7
	c0-2.4,0-2.8-0.1-3.7c0-1-0.2-1.6-0.4-2.2c-0.2-0.6-0.6-1.1-1-1.6c-0.5-0.5-1-0.8-1.6-1c-0.6-0.2-1.2-0.4-2.2-0.4
	c-1,0-1.3-0.1-3.7,0S9.2,3,8.3,3.1 M8.4,19.3c-0.9,0-1.4-0.2-1.7-0.3c-0.4-0.1-0.7-0.4-1-0.7c-0.3-0.3-0.5-0.6-0.7-1
	c-0.1-0.3-0.3-0.8-0.3-1.7c0-0.9-0.1-1.2-0.1-3.6c0-2.4,0-2.7,0-3.6C4.7,7.5,4.9,7,5,6.7c0.2-0.4,0.4-0.7,0.7-1
	c0.3-0.3,0.6-0.5,1-0.7C7,4.9,7.5,4.7,8.3,4.7c0.9,0,1.2-0.1,3.6-0.1c2.4,0,2.7,0,3.6,0c0.9,0,1.4,0.2,1.7,0.3
	c0.4,0.2,0.7,0.4,1,0.7c0.3,0.3,0.5,0.6,0.7,1c0.1,0.3,0.3,0.8,0.3,1.7c0,0.9,0.1,1.2,0.1,3.6c0,2.4,0,2.7,0,3.6
	c0,0.9-0.2,1.4-0.3,1.7c-0.1,0.4-0.4,0.7-0.7,1c-0.3,0.3-0.6,0.5-1,0.7c-0.3,0.1-0.8,0.3-1.7,0.3c-0.9,0-1.2,0.1-3.6,0.1
	C9.6,19.4,9.3,19.4,8.4,19.3 M15.7,7.2c0,0.6,0.5,1.1,1.1,1.1c0.6,0,1.1-0.5,1.1-1.1l0,0c0-0.6-0.5-1.1-1.1-1.1
	C16.2,6.1,15.7,6.6,15.7,7.2 M7.4,12c0,2.6,2.1,4.6,4.6,4.6s4.6-2.1,4.6-4.6S14.5,7.4,12,7.4C9.4,7.4,7.4,9.5,7.4,12 M9,12
	c0-1.7,1.3-3,3-3c1.7,0,3,1.3,3,3s-1.3,3-3,3C10.3,15,9,13.7,9,12L9,12"/>
</svg>
