<?xml version="1.0" encoding="utf-8"?>
<!-- Generator: Adobe Illustrator 26.3.1, SVG Export Plug-In . SVG Version: 6.00 Build 0)  -->
<svg version="1.1" id="Layer_1" xmlns="http://www.w3.org/2000/svg" xmlns:xlink="http://www.w3.org/1999/xlink" x="0px" y="0px"
	 viewBox="0 0 24 24" style="enable-background:new 0 0 24 24;" xml:space="preserve">
<style type="text/css">
	.st0{fill:#005DAA;}
</style>
<path class="st0" d="M19.8,5.4c0.9,0.2,1.5,0.9,1.8,1.7C21.9,8.7,22,10.4,22,12c0,1.6-0.1,3.2-0.4,4.8c-0.2,0.9-0.9,1.6-1.8,1.8
	C17.2,18.9,14.6,19,12,19c-2.6,0-5.2-0.1-7.8-0.4c-0.9-0.2-1.5-0.9-1.8-1.7C2.1,15.2,2,13.6,2,12c0-1.6,0.1-3.2,0.4-4.8
	c0.2-0.9,0.9-1.6,1.8-1.8C6.8,5.1,9.4,5,12,5C14.6,5,17.2,5.1,19.8,5.4z M9.9,9v5.9l5.2-2.9L9.9,9z"/>
</svg>
