<?xml version="1.0" encoding="UTF-8"?><svg id="a" xmlns="http://www.w3.org/2000/svg" width="949.41" height="208.36" viewBox="0 0 949.41 208.36"><g id="b"><g><rect x="34.04" y="150.51" width="38.05" height="37.33" fill="#7b7ebc"/><rect x="34.04" y="108.34" width="44.66" height="37.33" fill="#fff453"/><rect x="140.29" y="150.51" width="18.41" height="37.33" fill="#00acd4"/><rect x="131.94" y="108.34" width="26.75" height="37.33" fill="#7b7ebc"/><rect x="97.55" y="66.16" width="9.15" height="37.33" fill="#00acd4"/><rect x="111.56" y="66.16" width="47.14" height="37.33" fill="#ed1261"/><rect x="34.04" y="66.16" width="58.39" height="37.33" fill="#7b7ebc"/><rect x="83.94" y="108.34" width="43.14" height="37.33" fill="#ed1261"/><rect x="76.19" y="150.51" width="59.64" height="37.33" fill="#fff453"/><g><polygon points="0 68.02 115.81 6.43 126.84 17.46 4.6 78.13 0 68.02" fill="#ed1261"/><polygon points="73.53 0 206.81 66.64 197.16 85.03 72.15 16.09 73.53 0" fill="#ed1261"/></g><g><g><path d="m243.35,118.25c-18.59,0-24.58-12.37-24.58-25.61,0-16.86,8.82-28.68,26.63-28.68,3.78,0,7.8.47,11.27,1.42l-1.1,9.3c-3.47-1.03-7.09-1.58-10.72-1.58-9.93,0-14.81,7.49-14.81,17.81,0,11.58,4.81,18.04,15.52,18.04,3.23,0,7.56-.95,10.32-2.21l1.18,9.14c-3.94,1.42-8.75,2.36-13.71,2.36Z" fill="#fff"/><path d="m289.84,117.54v-25.05c0-4.1-1.1-6.54-4.81-6.54-5.12,0-9.14,5.83-9.14,12.68v18.91h-10.08v-57.52h10.08v16.78c0,2.36-.16,5.67-.71,7.96l.16.08c2.28-4.41,6.78-7.33,12.84-7.33,8.82,0,11.66,5.67,11.66,12.53v27.5h-10.01Z" fill="#fff"/><path d="m315.84,73.34c-3.47,0-6.23-2.76-6.23-6.15s2.76-6.07,6.23-6.07,6.3,2.68,6.3,6.07-2.84,6.15-6.3,6.15Zm-5.04,44.2v-39.16h10.08v39.16h-10.08Z" fill="#fff"/><path d="m331.76,117.54v-57.52h10.08v57.52h-10.08Z" fill="#fff"/><path d="m376.35,117.54c0-1.89.16-4.41.47-6.54h-.16c-2.05,4.33-6.38,7.41-12.37,7.41-9.53,0-14.26-7.17-14.26-18.36,0-13.24,7.72-22.38,20.72-22.38,1.66,0,3.23.08,4.96.32v-17.96h10.01v57.52h-9.38Zm-.63-31.28c-1.81-.39-3.54-.63-5.28-.63-5.75,0-9.85,3.62-9.85,13.31,0,7.33,2.13,11.11,6.7,11.11,5.28,0,8.43-6.15,8.43-12.84v-10.95Z" fill="#fff"/></g><path d="m465.36,117.54h-12.61l-7.72-29.31c-.95-3.39-1.5-7.17-2.05-10.95h-.08c-.39,3.7-1.02,7.17-1.97,10.72l-7.72,29.55h-11.9l-13.55-53.18h10.95l7.25,29.39c.87,3.47,1.5,7.09,1.97,10.79h.08c.55-3.54,1.1-7.09,2.05-10.48l8.11-29.7h10.87l8.19,29.54c.79,2.92,1.65,6.62,2.13,10.32h.08c.55-3.7,1.18-7.01,1.97-10.16l7.25-29.7h10.24l-13.55,53.18Z" fill="#fff"/><g><path d="m514.91,99.57h-24.27c-.08,7.33,3.55,10.87,10.79,10.87,3.86,0,8.04-.87,11.43-2.44l.95,7.8c-4.18,1.65-9.14,2.52-14.03,2.52-12.45,0-19.38-6.22-19.38-20.01,0-11.98,6.62-20.8,18.36-20.8s16.47,7.8,16.47,17.49c0,1.34-.08,2.91-.32,4.57Zm-16.47-14.65c-4.18,0-7.09,3.07-7.64,7.8h14.42c.16-4.88-2.52-7.8-6.78-7.8Z" fill="#fff"/><path d="m523.66,117.54v-57.52h10.08v57.52h-10.08Z" fill="#fff"/></g><path d="m567.94,68.3c-1.58-.55-3.39-.71-4.89-.71-4.41,0-6.38,2.28-6.38,7.49v3.31h9.14v7.8h-9.14v31.36h-10.01v-31.36h-6.86v-7.8h6.86v-3.15c0-10.64,4.88-15.84,15.6-15.84,2.13,0,4.33.16,6.38.63l-.71,8.27Z" fill="#fff"/><path d="m591.56,117.54c0-2.28.08-4.57.39-6.62l-.08-.08c-1.89,4.41-6.7,7.48-12.53,7.48-7.09,0-11.19-4.02-11.19-10.32,0-9.38,9.3-14.34,22.61-14.34v-2.13c0-4.1-1.97-6.22-7.64-6.22-3.55,0-8.27,1.18-11.58,3.07l-.87-8.43c3.94-1.42,8.98-2.44,14.02-2.44,12.61,0,16.15,5.12,16.15,13.63v16.31c0,3.15.08,6.85.24,10.08h-9.53Zm-.79-17.33c-10.64,0-13,3.07-13,6.23,0,2.52,1.73,4.18,4.65,4.18,4.96,0,8.35-4.73,8.35-9.45v-.95Z" fill="#fff"/><path d="m632.84,87.44c-7.25-1.5-10.87,3.23-10.87,14.1v15.99h-10.08v-39.16h9.53c0,1.97-.24,5.12-.71,7.88h.16c1.89-4.96,5.67-9.3,12.45-8.75l-.47,9.93Z" fill="#fff"/><path d="m671.05,99.57h-24.27c-.08,7.33,3.55,10.87,10.79,10.87,3.86,0,8.04-.87,11.42-2.44l.95,7.8c-4.18,1.65-9.14,2.52-14.03,2.52-12.45,0-19.38-6.22-19.38-20.01,0-11.98,6.62-20.8,18.36-20.8s16.47,7.8,16.47,17.49c0,1.34-.08,2.91-.32,4.57Zm-16.47-14.65c-4.18,0-7.09,3.07-7.64,7.8h14.42c.16-4.88-2.52-7.8-6.78-7.8Z" fill="#fff"/><g><path d="m221.29,188.82v-53.18h10.24v53.18h-10.24Z" fill="#fff"/><path d="m266.52,188.82v-25.05c0-4.1-1.1-6.54-4.81-6.54-5.12,0-9.14,5.83-9.14,12.68v18.91h-10.08v-39.16h9.53c0,1.81-.16,4.89-.55,6.93l.08.08c2.36-4.65,6.93-7.88,13.32-7.88,8.82,0,11.66,5.67,11.66,12.53v27.5h-10.01Z" fill="#fff"/></g><path d="m310.8,139.58c-1.58-.55-3.39-.71-4.88-.71-4.41,0-6.38,2.28-6.38,7.49v3.31h9.14v7.8h-9.14v31.36h-10.01v-31.36h-6.85v-7.8h6.85v-3.15c0-10.64,4.88-15.84,15.6-15.84,2.13,0,4.33.16,6.38.63l-.71,8.27Z" fill="#fff"/><g><path d="m329.62,189.61c-11.11,0-18.28-5.75-18.28-19.7,0-12.21,8.11-21.04,20.01-21.04,11.11,0,18.28,6.15,18.28,19.62,0,12.29-8.27,21.12-20.01,21.12Zm1.02-32.22c-4.49,0-8.9,3.47-8.9,11.5s2.91,12.13,8.74,12.13c4.96,0,8.75-4.02,8.75-11.98s-2.68-11.66-8.59-11.66Z" fill="#fff"/><path d="m378.7,158.73c-7.25-1.5-10.87,3.23-10.87,14.1v15.99h-10.08v-39.16h9.53c0,1.97-.24,5.12-.71,7.88h.16c1.89-4.96,5.67-9.3,12.45-8.75l-.47,9.93Z" fill="#fff"/><path d="m432.99,188.82v-24.82c0-4.18-.95-6.78-4.65-6.78-4.41,0-8.98,5.2-8.98,12.84v18.75h-9.93v-24.82c0-3.86-.79-6.78-4.65-6.78-4.65,0-8.98,5.52-8.98,12.84v18.75h-10.08v-39.16h9.53c0,1.81-.16,4.73-.55,7.01h.16c2.36-4.81,7.09-7.88,12.92-7.88,6.93,0,9.85,4.1,10.79,7.88,1.81-3.86,6.15-7.88,12.76-7.88,7.56,0,11.74,4.18,11.74,13.08v26.95h-10.08Z" fill="#fff"/></g><path d="m474.9,188.82c0-2.28.08-4.57.39-6.62l-.08-.08c-1.89,4.41-6.7,7.48-12.53,7.48-7.09,0-11.19-4.02-11.19-10.32,0-9.38,9.3-14.34,22.61-14.34v-2.13c0-4.1-1.97-6.22-7.64-6.22-3.55,0-8.27,1.18-11.58,3.07l-.87-8.43c3.94-1.42,8.98-2.44,14.02-2.44,12.61,0,16.15,5.12,16.15,13.63v16.31c0,3.15.08,6.85.24,10.08h-9.53Zm-.79-17.33c-10.64,0-13,3.07-13,6.23,0,2.52,1.73,4.18,4.65,4.18,4.96,0,8.35-4.73,8.35-9.45v-.95Z" fill="#fff"/><g><path d="m507.6,189.61c-8.67,0-11.35-3.15-11.35-12.29v-19.85h-6.78v-7.8h6.7v-12.05l10.08-2.68v14.73h9.53v7.8h-9.53v17.18c0,5.04,1.18,6.46,4.65,6.46,1.65,0,3.47-.24,4.89-.63v8.12c-2.52.63-5.44,1.02-8.19,1.02Z" fill="#fff"/><path d="m529.03,144.62c-3.47,0-6.23-2.76-6.23-6.15s2.76-6.07,6.23-6.07,6.3,2.68,6.3,6.07-2.84,6.15-6.3,6.15Zm-5.04,44.2v-39.16h10.08v39.16h-10.08Z" fill="#fff"/><path d="m560.39,189.61c-11.11,0-18.28-5.75-18.28-19.7,0-12.21,8.12-21.04,20.01-21.04,11.11,0,18.28,6.15,18.28,19.62,0,12.29-8.27,21.12-20.01,21.12Zm1.02-32.22c-4.49,0-8.9,3.47-8.9,11.5s2.91,12.13,8.75,12.13c4.96,0,8.75-4.02,8.75-11.98s-2.68-11.66-8.59-11.66Z" fill="#fff"/><path d="m612.54,188.82v-25.05c0-4.1-1.1-6.54-4.81-6.54-5.12,0-9.14,5.83-9.14,12.68v18.91h-10.08v-39.16h9.53c0,1.81-.16,4.89-.55,6.93l.08.08c2.36-4.65,6.93-7.88,13.32-7.88,8.82,0,11.66,5.67,11.66,12.53v27.5h-10.01Z" fill="#fff"/><path d="m691.33,146.67c-4.25-1.66-9.14-2.68-14.1-2.68-10.48,0-18.04,6.62-18.04,18.52,0,11.27,6.15,17.88,16.94,17.88,2.52,0,4.73-.31,6.77-.95v-18.52h10.24v25.37c-5.28,2.13-11.82,3.31-18.2,3.31-16.86,0-26.87-9.93-26.87-26.16s11.35-28.6,29.78-28.6c5.28,0,10.48.95,15.05,2.29l-1.58,9.53Z" fill="#fff"/></g><path d="m724.82,188.82c0-2.28.08-4.57.39-6.62l-.08-.08c-1.89,4.41-6.7,7.48-12.53,7.48-7.09,0-11.19-4.02-11.19-10.32,0-9.38,9.3-14.34,22.61-14.34v-2.13c0-4.1-1.97-6.22-7.64-6.22-3.55,0-8.27,1.18-11.58,3.07l-.87-8.43c3.94-1.42,8.98-2.44,14.02-2.44,12.61,0,16.15,5.12,16.15,13.63v16.31c0,3.15.08,6.85.24,10.08h-9.53Zm-.79-17.33c-10.64,0-13,3.07-13,6.23,0,2.52,1.73,4.18,4.65,4.18,4.96,0,8.35-4.73,8.35-9.45v-.95Z" fill="#fff"/><path d="m757.51,189.61c-8.67,0-11.35-3.15-11.35-12.29v-19.85h-6.78v-7.8h6.7v-12.05l10.08-2.68v14.73h9.53v7.8h-9.53v17.18c0,5.04,1.18,6.46,4.65,6.46,1.65,0,3.47-.24,4.89-.63v8.12c-2.52.63-5.44,1.02-8.19,1.02Z" fill="#fff"/><path d="m805.65,170.86h-24.27c-.08,7.33,3.55,10.87,10.79,10.87,3.86,0,8.04-.87,11.42-2.44l.95,7.8c-4.18,1.65-9.14,2.52-14.03,2.52-12.45,0-19.38-6.22-19.38-20.01,0-11.98,6.62-20.8,18.36-20.8s16.47,7.8,16.47,17.49c0,1.34-.08,2.91-.32,4.57Zm-16.47-14.65c-4.18,0-7.09,3.07-7.64,7.8h14.42c.16-4.88-2.52-7.8-6.78-7.8Z" fill="#fff"/><path d="m858.27,188.82h-10.95l-5.67-17.41c-.87-2.68-1.5-5.44-2.21-8.74h-.08c-.79,3.62-1.65,6.62-2.68,9.85l-4.96,16.31h-10.4l-11.98-39.16h11.03l4.18,14.81c1.02,3.86,2.13,7.8,3.07,11.82h.08c.79-4.33,1.73-7.88,2.84-11.35l4.73-15.29h9.69l4.81,14.81c1.42,4.49,2.36,7.96,3.15,11.82h.16c.79-4.02,1.58-7.49,2.76-11.35l4.41-15.29h10.32l-12.29,39.16Z" fill="#fff"/><path d="m896.32,188.82c0-2.28.08-4.57.39-6.62l-.08-.08c-1.89,4.41-6.7,7.48-12.53,7.48-7.09,0-11.19-4.02-11.19-10.32,0-9.38,9.3-14.34,22.61-14.34v-2.13c0-4.1-1.97-6.22-7.64-6.22-3.55,0-8.27,1.18-11.58,3.07l-.87-8.43c3.94-1.42,8.98-2.44,14.02-2.44,12.61,0,16.15,5.12,16.15,13.63v16.31c0,3.15.08,6.85.24,10.08h-9.53Zm-.79-17.33c-10.64,0-13,3.07-13,6.23,0,2.52,1.73,4.18,4.65,4.18,4.96,0,8.35-4.73,8.35-9.45v-.95Z" fill="#fff"/><path d="m933.33,192.45c-4.65,12.21-8.75,15.92-17.73,15.92-1.73,0-3.86-.24-5.52-.63l.63-8.67c1.81.55,3.47.87,5.36.87,3.31,0,5.51-1.5,7.56-7.33l1.34-3.78-14.42-39.16h11.19l5.28,14.97c1.18,3.39,2.21,7.25,3.07,10.79h.08c.87-3.54,2.52-8.74,3.78-12.45l4.65-13.32h10.79l-16.07,42.78Z" fill="#fff"/></g></g></g></svg>